<svg xmlns="http://www.w3.org/2000/svg" viewBox="0 0 200 200" fill="none" stroke="#15803d" stroke-width="2">
  <path d="M120 50c0 0 20 10 30 30c10 20 10 40 0 60c-10 20-30 30-30 30" />
  <path d="M80 50c0 0-20 10-30 30c-10 20-10 40 0 60c10 20 30 30 30 30" />
  <path d="M100 50v120" />
  <path d="M70 170c0 0 10 10 30 10c20 0 30-10 30-10" />
  <path d="M70 30c0 0 10-10 30-10c20 0 30 10 30 10" />
  <path d="M100 20c0 0-20 20-20 40c0 20 20 40 20 40" />
  <path d="M100 20c0 0 20 20 20 40c0 20-20 40-20 40" />
</svg>

